# xmcd
#
# Track frame offsets: 
#        150
#        20618
#        44119
#        65014
#        95961
#        117985
#        133309
#        160966
#        174788
#        189061
#        215462
#        231826
#
# Disc length: 3403 seconds
#
# Revision: 1
# Processed by: cddbd v1.5.2PL0 Copyright (c) Steve Scherf et al.
# Submitted via: ExactAudioCopy v0.99pb4
#
DISCID=af0d490c
DTITLE=Doug Macleod - The Utrecht Sessions
DYEAR=2008
DGENRE=Blues
TTITLE0=Horse With No Rider
TTITLE1=This Old River
TTITLE2=The Addition To Blues
TTITLE3=The Long Black Train
TTITLE4=The Demon's Moan
TTITLE5=Long Time Road
TTITLE6=I Respectfully Decline
TTITLE7=That Ain't Right
TTITLE8=Coming Your Brand New Day
TTITLE9=Sheep Of A Different Color
TTITLE10=What You Got (Ain't Necessarily What You Own)
TTITLE11=Where You'll Find Me
EXTD=YEAR: 2008
EXTT0=
EXTT1=
EXTT2=
EXTT3=
EXTT4=
EXTT5=
EXTT6=
EXTT7=
EXTT8=
EXTT9=
EXTT10=
EXTT11=
PLAYORDER=
